<?xml version="1.0" encoding="utf-8"?>
<!-- Generator: Adobe Illustrator 28.0.0, SVG Export Plug-In . SVG Version: 6.00 Build 0)  -->
<svg version="1.1" id="Layer_1" xmlns="http://www.w3.org/2000/svg" xmlns:xlink="http://www.w3.org/1999/xlink" x="0px" y="0px"
	 viewBox="0 0 288 288" style="enable-background:new 0 0 288 288;" xml:space="preserve">
<style type="text/css">
	.st0{fill:url(#SVGID_1_);}
</style>
<g>
	<linearGradient id="SVGID_1_" gradientUnits="userSpaceOnUse" x1="83.3242" y1="154.6198" x2="204.2262" y2="73.0584">
		<stop  offset="0" style="stop-color:#EAB308"/>
		<stop  offset="0.0543" style="stop-color:#EAA31D"/>
		<stop  offset="0.161" style="stop-color:#EB7D51"/>
		<stop  offset="0.4211" style="stop-color:#EC5587"/>
		<stop  offset="0.5005" style="stop-color:#EC4899"/>
		<stop  offset="1" style="stop-color:#E11D48"/>
	</linearGradient>
	<path class="st0" d="M204.76,96.51L204.76,96.51h-26.85c5.15-12.45,10.31-24.89,15.46-37.34l5.01-12.1
		c1.02-2.47,0.75-5.28-0.74-7.51C196.17,37.33,193.67,36,191,36h-75c-3.4,0-6.42,2.14-7.55,5.35L83.67,111.9l-7.24,20.61
		c-0.86,2.45-0.48,5.16,1.02,7.28c1.5,2.12,3.93,3.37,6.53,3.37h23.5l-31.04,96.1c-1.27,3.92,0.65,8.15,4.42,9.8l0.27,0.12
		l0.62,0.27c1.03,0.45,2.11,0.66,3.19,0.66c2.26,0,4.48-0.96,6.04-2.75l54.02-62.04l65.7-75.46c1.28-1.42,2.06-3.29,2.06-5.35
		C212.75,100.09,209.18,96.51,204.76,96.51z M84.94,242.11c-0.29-0.13-0.59-0.26-0.88-0.38c11.41-35.34,22.83-70.68,34.42-106.56
		c-11.68,0-22.63,0-34.49,0C94.8,104.37,105.4,74.18,116,44c25,0,50,0,75,0c-7.51,18.12-15.02,36.24-22.52,54.37
		c-0.75,1.81-1.45,3.64-2.44,6.14c12.76,0,24.98,0,38.71,0C164.19,151.09,124.56,196.6,84.94,242.11z"/>
</g>
</svg>
