<?xml version="1.0" encoding="utf-8"?>
<!-- Generator: Adobe Illustrator 28.0.0, SVG Export Plug-In . SVG Version: 6.00 Build 0)  -->
<svg version="1.1" id="Layer_1" xmlns="http://www.w3.org/2000/svg" xmlns:xlink="http://www.w3.org/1999/xlink" x="0px" y="0px"
	 viewBox="0 0 288 288" style="enable-background:new 0 0 288 288;" xml:space="preserve">
<style type="text/css">
	.st0{fill:url(#SVGID_1_);}
</style>
<g>
	<linearGradient id="SVGID_1_" gradientUnits="userSpaceOnUse" x1="83.9765" y1="155.4254" x2="204.8771" y2="73.8649">
		<stop  offset="0" style="stop-color:#EAB308"/>
		<stop  offset="0.0543" style="stop-color:#EAA31D"/>
		<stop  offset="0.161" style="stop-color:#EB7D51"/>
		<stop  offset="0.4211" style="stop-color:#EC5587"/>
		<stop  offset="0.5005" style="stop-color:#EC4899"/>
		<stop  offset="1" style="stop-color:#E11D48"/>
	</linearGradient>
	<path class="st0" d="M205.4,97.31L205.4,97.31h-26.83c-0.01,0-0.01-0.01-0.01-0.01c5.15-12.44,10.31-24.89,15.46-37.33l4.95-11.96
		c0.63-1.53,0.87-3.21,0.52-4.82c-0.84-3.87-4.18-6.39-7.85-6.39h-74.99c-3.4,0-6.43,2.15-7.55,5.35l-24.78,70.55l-7.18,20.45
		c-0.51,1.45-0.68,3.03-0.34,4.53c0.89,3.83,4.2,6.29,7.83,6.29h23.49c0.01,0,0.01,0,0.01,0.01l-31.03,96.08
		c-1.27,3.92,0.65,8.16,4.43,9.8l0.26,0.11l0.62,0.27c1.03,0.45,2.11,0.66,3.19,0.66c2.26,0,4.48-0.96,6.04-2.75l54.02-62.04
		l65.7-75.46c1.87-2.08,2.67-5.14,1.52-8.31C211.76,99.26,208.69,97.31,205.4,97.31z"/>
</g>
</svg>
